# Made in Blockbench 4.6.5
mtllib paintings_lib_4x2.mtl

o plane
v -2.5 -1.4999999999999984 0.4843750000000029
v -2.5 0.5000000000000016 0.4843749999999962
v 1.5 -1.4999999999999982 0.48437500000000333
v 1.5 0.5000000000000018 0.48437499999999667
vt 0.984375 0
vt 1 1
vt 0 1
vt 0 0
vn 1.2246467991473532e-16 -3.3306690738754696e-15 -1
usemtl m_1301f86f-a555-6fc1-cf6a-0628584373f3
f 1/1/1 2/2/1 4/3/1 3/4/1
o cube
v -2.4375 0.5 0.5
v -2.4375 0.5 0.4375
v -2.4375 -1.5 0.5
v -2.4375 -1.5 0.4375
v -2.5 0.5 0.5
v -2.5 0.5 0.4375
v -2.5 -1.5 0.5
v -2.5 -1.5 0.4375
v 1.4375 -1.4375 0.5
v 1.4375 -1.4375 0.4375
v 1.4375 -1.5 0.5
v 1.4375 -1.5 0.4375
v -2.4375 -1.4375 0.5
v -2.4375 -1.4375 0.4375
v -2.4375 -1.5 0.5
v -2.4375 -1.5 0.4375
v 1.4375 0.5 0.5
v 1.4375 0.5 0.4375
v 1.4375 0.4375 0.5
v 1.4375 0.4375 0.4375
v -2.4375 0.5 0.5
v -2.4375 0.5 0.4375
v -2.4375 0.4375 0.5
v -2.4375 0.4375 0.4375
v 1.5 0.5 0.5
v 1.5 0.5 0.4375
v 1.5 -1.5 0.5
v 1.5 -1.5 0.4375
v 1.4375 0.5 0.5
v 1.4375 0.5 0.4375
v 1.4375 -1.5 0.5
v 1.4375 -1.5 0.4375
vt 1 0
vt 1 1
vt 0.984375 1
vt 0.984375 0
vt 1 0
vt 1 1
vt 0.984375 1
vt 0.984375 0
vt 0.015625 0.96875
vt 0.015625 1
vt 0 1
vt 0 0.96875
vt 0.015625 0.96875
vt 0.015625 1
vt 0 1
vt 0 0.96875
vt 1 0
vt 1 1
vt 0.984375 1
vt 0.984375 0
vt 1 0
vt 1 1
vt 0.984375 1
vt 0.984375 0
vt 0.015625 0.96875
vt 0.015625 1
vt 0 1
vt 0 0.96875
vt 0.015625 0.96875
vt 0.015625 1
vt 0 1
vt 0 0.96875
vt 0.984375 0
vt 0.984375 0.03125
vt 0.015625 0.03125
vt 0.015625 0
vt 0.984375 0
vt 0.984375 0.03125
vt 0.015625 0.03125
vt 0.015625 0
vt 0.984375 0
vt 0.984375 0.03125
vt 0.015625 0.03125
vt 0.015625 0
vt 0.984375 0
vt 0.984375 0.03125
vt 0.015625 0.03125
vt 0.015625 0
vt 0.015625 0.96875
vt 0.015625 1
vt 0 1
vt 0 0.96875
vt 0.015625 0.96875
vt 0.015625 1
vt 0 1
vt 0 0.96875
vt 0.984375 0.96875
vt 0.984375 1
vt 0.015625 1
vt 0.015625 0.96875
vt 0.984375 0.96875
vt 0.984375 1
vt 0.015625 1
vt 0.015625 0.96875
vt 0.984375 0.96875
vt 0.984375 1
vt 0.015625 1
vt 0.015625 0.96875
vt 0.984375 0.96875
vt 0.984375 1
vt 0.015625 1
vt 0.015625 0.96875
vt 0.015625 0
vt 0.015625 1
vt 0 1
vt 0 0
vt 0.015625 0
vt 0.015625 1
vt 0 1
vt 0 0
vt 0.015625 0.96875
vt 0.015625 1
vt 0 1
vt 0 0.96875
vt 0.015625 0.96875
vt 0.015625 1
vt 0 1
vt 0 0.96875
vt 0.015625 0
vt 0.015625 1
vt 0 1
vt 0 0
vt 0.015625 0
vt 0.015625 1
vt 0 1
vt 0 0
vn 1 0 0
vn -1 0 0
vn 0 1 0
vn 0 -1 0
vn 0 0 1
vn 0 0 -1
vn 1 0 0
vn -1 0 0
vn 0 1 0
vn 0 -1 0
vn 0 0 1
vn 0 0 -1
vn 1 0 0
vn -1 0 0
vn 0 1 0
vn 0 -1 0
vn 0 0 1
vn 0 0 -1
vn 1 0 0
vn -1 0 0
vn 0 1 0
vn 0 -1 0
vn 0 0 1
vn 0 0 -1
usemtl m_190a9590-f98a-f621-d3b2-5a8eb48cedc5
f 8/5/2 6/6/2 5/7/2 7/8/2
f 11/9/3 9/10/3 10/11/3 12/12/3
f 5/13/4 6/14/4 10/15/4 9/16/4
f 8/17/5 7/18/5 11/19/5 12/20/5
f 7/21/6 5/22/6 9/23/6 11/24/6
f 12/25/7 10/26/7 6/27/7 8/28/7
usemtl none
f 16/29/8 14/30/8 13/31/8 15/32/8
f 19/33/9 17/34/9 18/35/9 20/36/9
usemtl m_190a9590-f98a-f621-d3b2-5a8eb48cedc5
f 13/37/10 14/38/10 18/39/10 17/40/10
f 16/41/11 15/42/11 19/43/11 20/44/11
f 15/45/12 13/46/12 17/47/12 19/48/12
f 20/49/13 18/50/13 14/51/13 16/52/13
usemtl none
f 24/53/14 22/54/14 21/55/14 23/56/14
f 27/57/15 25/58/15 26/59/15 28/60/15
usemtl m_190a9590-f98a-f621-d3b2-5a8eb48cedc5
f 21/61/16 22/62/16 26/63/16 25/64/16
f 24/65/17 23/66/17 27/67/17 28/68/17
f 23/69/18 21/70/18 25/71/18 27/72/18
f 28/73/19 26/74/19 22/75/19 24/76/19
f 32/77/20 30/78/20 29/79/20 31/80/20
f 35/81/21 33/82/21 34/83/21 36/84/21
f 29/85/22 30/86/22 34/87/22 33/88/22
f 32/89/23 31/90/23 35/91/23 36/92/23
f 31/93/24 29/94/24 33/95/24 35/96/24
f 36/97/25 34/98/25 30/99/25 32/100/25