# Made in Blockbench 4.6.5
mtllib paintings_lib_1x1.mtl

o plane
v -0.5000000000000001 -0.5000000000000006 0.48437499999999994
v -0.5000000000000001 0.49999999999999944 0.48437500000000105
v 0.49999999999999994 -0.5000000000000006 0.48437500000000006
v 0.49999999999999994 0.49999999999999944 0.48437500000000117
vt 1 0
vt 1 1
vt 0 1
vt 0 0
vn 1.2246467991473532e-16 1.1102230246251565e-15 -1
usemtl m_4c1b2dc4-031d-4436-e7f2-9f98428f4029
f 1/1/1 2/2/1 4/3/1 3/4/1
o cube
v -0.4375 0.4999999999999981 0.5000000000000039
v -0.4375 0.49999999999999833 0.43750000000000383
v -0.4375 -0.5000000000000019 0.5
v -0.4375 -0.5000000000000017 0.4375
v -0.5 0.4999999999999981 0.5000000000000039
v -0.5 0.49999999999999833 0.43750000000000383
v -0.5 -0.5000000000000019 0.5
v -0.5 -0.5000000000000017 0.4375
v 0.4375 -0.43750000000000194 0.5000000000000002
v 0.4375 -0.43750000000000167 0.4375000000000002
v 0.4375 -0.5000000000000019 0.5
v 0.4375 -0.5000000000000017 0.4375
v -0.4375 -0.43750000000000194 0.5000000000000002
v -0.4375 -0.43750000000000167 0.4375000000000002
v -0.4375 -0.5000000000000019 0.5
v -0.4375 -0.5000000000000017 0.4375
v 0.4375 0.4999999999999981 0.5000000000000039
v 0.4375 0.49999999999999833 0.43750000000000383
v 0.4375 0.4374999999999981 0.5000000000000036
v 0.4375 0.43749999999999833 0.4375000000000036
v -0.4375 0.4999999999999981 0.5000000000000039
v -0.4375 0.49999999999999833 0.43750000000000383
v -0.4375 0.4374999999999981 0.5000000000000036
v -0.4375 0.43749999999999833 0.4375000000000036
v 0.5 0.4999999999999981 0.5000000000000039
v 0.5 0.49999999999999833 0.43750000000000383
v 0.5 -0.5000000000000019 0.5
v 0.5 -0.5000000000000017 0.4375
v 0.4375 0.4999999999999981 0.5000000000000039
v 0.4375 0.49999999999999833 0.43750000000000383
v 0.4375 -0.5000000000000019 0.5
v 0.4375 -0.5000000000000017 0.4375
vt 0.0625 0
vt 0.0625 1
vt 0 1
vt 0 0
vt 0.0625 0
vt 0.0625 1
vt 0 1
vt 0 0
vt 0.9375 0.9375
vt 0.9375 1
vt 0.875 1
vt 0.875 0.9375
vt 0.9375 0
vt 0.9375 0.0625
vt 0.875 0.0625
vt 0.875 0
vt 1 0
vt 1 1
vt 0.9375 1
vt 0.9375 0
vt 1 0
vt 1 1
vt 0.9375 1
vt 0.9375 0
vt 0.9375 0.25
vt 0.9375 0.3125
vt 0.875 0.3125
vt 0.875 0.25
vt 0.125 0.25
vt 0.125 0.3125
vt 0.0625 0.3125
vt 0.0625 0.25
vt 0.9375 0.9375
vt 0.9375 1
vt 0.0625 1
vt 0.0625 0.9375
vt 0.9375 0.9375
vt 0.9375 1
vt 0.0625 1
vt 0.0625 0.9375
vt 0.9375 0
vt 0.9375 0.0625
vt 0.0625 0.0625
vt 0.0625 0
vt 0.9375 0
vt 0.9375 0.0625
vt 0.0625 0.0625
vt 0.0625 0
vt 0.0625 0.9375
vt 0.0625 1
vt 0 1
vt 0 0.9375
vt 1 0.9375
vt 1 1
vt 0.9375 1
vt 0.9375 0.9375
vt 0.9375 0
vt 0.9375 0.0625
vt 0.0625 0.0625
vt 0.0625 0
vt 0.9375 0
vt 0.9375 0.0625
vt 0.0625 0.0625
vt 0.0625 0
vt 0.9375 0.9375
vt 0.9375 1
vt 0.0625 1
vt 0.0625 0.9375
vt 0.9375 0.9375
vt 0.9375 1
vt 0.0625 1
vt 0.0625 0.9375
vt 1 0
vt 1 1
vt 0.9375 1
vt 0.9375 0
vt 1 0
vt 1 1
vt 0.9375 1
vt 0.9375 0
vt 0.125 0.9375
vt 0.125 1
vt 0.0625 1
vt 0.0625 0.9375
vt 0.125 0
vt 0.125 0.0625
vt 0.0625 0.0625
vt 0.0625 0
vt 0.0625 0
vt 0.0625 1
vt 0 1
vt 0 0
vt 0.0625 0
vt 0.0625 1
vt 0 1
vt 0 0
vn 1 0 0
vn -1 0 0
vn 0 1 3.844147222764605e-15
vn 0 -1 -3.844147222764605e-15
vn 0 -3.844147222764605e-15 1
vn 0 3.844147222764605e-15 -1
vn 1 0 0
vn -1 0 0
vn 0 1 3.844147222764605e-15
vn 0 -1 -3.844147222764605e-15
vn 0 -3.844147222764605e-15 1
vn 0 3.844147222764605e-15 -1
vn 1 0 0
vn -1 0 0
vn 0 1 3.844147222764605e-15
vn 0 -1 -3.844147222764605e-15
vn 0 -3.844147222764605e-15 1
vn 0 3.844147222764605e-15 -1
vn 1 0 0
vn -1 0 0
vn 0 1 3.844147222764605e-15
vn 0 -1 -3.844147222764605e-15
vn 0 -3.844147222764605e-15 1
vn 0 3.844147222764605e-15 -1
usemtl m_7dba1dae-c168-5bcf-bc95-42b33da22c59
f 8/5/2 6/6/2 5/7/2 7/8/2
f 11/9/3 9/10/3 10/11/3 12/12/3
f 5/13/4 6/14/4 10/15/4 9/16/4
usemtl none
f 8/17/5 7/18/5 11/19/5 12/20/5
usemtl m_7dba1dae-c168-5bcf-bc95-42b33da22c59
f 7/21/6 5/22/6 9/23/6 11/24/6
f 12/25/7 10/26/7 6/27/7 8/28/7
usemtl none
f 16/29/8 14/30/8 13/31/8 15/32/8
f 19/33/9 17/34/9 18/35/9 20/36/9
usemtl m_7dba1dae-c168-5bcf-bc95-42b33da22c59
f 13/37/10 14/38/10 18/39/10 17/40/10
f 16/41/11 15/42/11 19/43/11 20/44/11
f 15/45/12 13/46/12 17/47/12 19/48/12
f 20/49/13 18/50/13 14/51/13 16/52/13
usemtl none
f 24/53/14 22/54/14 21/55/14 23/56/14
f 27/57/15 25/58/15 26/59/15 28/60/15
usemtl m_7dba1dae-c168-5bcf-bc95-42b33da22c59
f 21/61/16 22/62/16 26/63/16 25/64/16
f 24/65/17 23/66/17 27/67/17 28/68/17
f 23/69/18 21/70/18 25/71/18 27/72/18
f 28/73/19 26/74/19 22/75/19 24/76/19
f 32/77/20 30/78/20 29/79/20 31/80/20
f 35/81/21 33/82/21 34/83/21 36/84/21
f 29/85/22 30/86/22 34/87/22 33/88/22
usemtl none
f 32/89/23 31/90/23 35/91/23 36/92/23
usemtl m_7dba1dae-c168-5bcf-bc95-42b33da22c59
f 31/93/24 29/94/24 33/95/24 35/96/24
f 36/97/25 34/98/25 30/99/25 32/100/25