# Made in Blockbench 4.6.5
mtllib paintings_lib_4x3.mtl

o plane
v -2.5 -1.4999999999999973 0.48437500000001055
v -2.5 1.5000000000000027 0.4843749999999939
v 1.5 -1.4999999999999973 0.484375000000011
v 1.5 1.5000000000000027 0.48437499999999434
vt 1 0
vt 1 1
vt 0 1
vt 0 0
vn 1.224646799147353e-16 -5.551115123125783e-15 -1
usemtl m_7731411c-b95b-ef82-bd57-fc430f3f360f
f 1/1/1 2/2/1 4/3/1 3/4/1
o cube
v -2.5 -1.5 0.5
v -2.4375 1.5 0.5
v -2.4375 1.5 0.4375
v -2.4375 -1.5 0.5
v -2.4375 -1.5 0.4375
v -2.5 1.5 0.5
v -2.5 1.5 0.4375
v -2.5 -1.5 0.4375
v 1.4375 -1.4375 0.5
v 1.4375 -1.4375 0.4375
v 1.4375 -1.5 0.5
v 1.4375 -1.5 0.4375
v -2.4375 -1.4375 0.5
v -2.4375 -1.4375 0.4375
v -2.4375 -1.5 0.5
v -2.4375 -1.5 0.4375
v 1.4375 1.5 0.5
v 1.4375 1.5 0.4375
v 1.4375 1.4375 0.5
v 1.4375 1.4375 0.4375
v -2.4375 1.5 0.5
v -2.4375 1.5 0.4375
v -2.4375 1.4375 0.5
v -2.4375 1.4375 0.4375
v 1.5 1.5 0.5
v 1.5 1.5 0.4375
v 1.5 -1.5 0.5
v 1.5 -1.5 0.4375
v 1.4375 1.5 0.5
v 1.4375 1.5 0.4375
v 1.4375 -1.5 0.5
v 1.4375 -1.5 0.4375
vt 1 0
vt 1 1
vt 0.984375 1
vt 0.984375 0
vt 1 0
vt 1 1
vt 0.984375 1
vt 0.984375 0
vt 0.015625 0.9791666666666666
vt 0.015625 1
vt 0 1
vt 0 0.9791666666666666
vt 0.015625 0.9791666666666666
vt 0.015625 1
vt 0 1
vt 0 0.9791666666666666
vt 1 0
vt 1 1
vt 0.984375 1
vt 0.984375 0
vt 1 0
vt 1 1
vt 0.984375 1
vt 0.984375 0
vt 0.015625 0.9791666666666666
vt 0.015625 1
vt 0 1
vt 0 0.9791666666666666
vt 0.015625 0.9791666666666666
vt 0.015625 1
vt 0 1
vt 0 0.9791666666666666
vt 0.984375 0
vt 0.984375 0.02083333333333337
vt 0.015625 0.02083333333333337
vt 0.015625 0
vt 0.984375 0
vt 0.984375 0.02083333333333337
vt 0.015625 0.02083333333333337
vt 0.015625 0
vt 0.984375 0
vt 0.984375 0.02083333333333337
vt 0.015625 0.02083333333333337
vt 0.015625 0
vt 0.984375 0
vt 0.984375 0.02083333333333337
vt 0.015625 0.02083333333333337
vt 0.015625 0
vt 0.015625 0.9791666666666666
vt 0.015625 1
vt 0 1
vt 0 0.9791666666666666
vt 0.015625 0.9791666666666666
vt 0.015625 1
vt 0 1
vt 0 0.9791666666666666
vt 0.984375 0.9791666666666666
vt 0.984375 1
vt 0.015625 1
vt 0.015625 0.9791666666666666
vt 0.984375 0.9791666666666666
vt 0.984375 1
vt 0.015625 1
vt 0.015625 0.9791666666666666
vt 0.984375 0.9791666666666666
vt 0.984375 1
vt 0.015625 1
vt 0.015625 0.9791666666666666
vt 0.984375 0.9791666666666666
vt 0.984375 1
vt 0.015625 1
vt 0.015625 0.9791666666666666
vt 0.015625 0
vt 0.015625 1
vt 0 1
vt 0 0
vt 0.015625 0
vt 0.015625 1
vt 0 1
vt 0 0
vt 0.015625 0.9791666666666666
vt 0.015625 1
vt 0 1
vt 0 0.9791666666666666
vt 0.015625 0.9791666666666666
vt 0.015625 1
vt 0 1
vt 0 0.9791666666666666
vt 0.015625 0
vt 0.015625 1
vt 0 1
vt 0 0
vt 0.015625 0
vt 0.015625 1
vt 0 1
vt 0 0
vn 1 0 0
vn -1 0 0
vn 0 1 0
vn 0 -1 0
vn 0 0 1
vn 0 0 -1
vn 1 0 0
vn -1 0 0
vn 0 1 0
vn 0 -1 0
vn 0 0 1
vn 0 0 -1
vn 1 0 0
vn -1 0 0
vn 0 1 0
vn 0 -1 0
vn 0 0 1
vn 0 0 -1
vn 1 0 0
vn -1 0 0
vn 0 1 0
vn 0 -1 0
vn 0 0 1
vn 0 0 -1
usemtl m_ec2c7198-dc86-c17f-923d-2128ca144c10
f 9/5/2 7/6/2 6/7/2 8/8/2
f 5/9/3 10/10/3 11/11/3 12/12/3
f 6/13/4 7/14/4 11/15/4 10/16/4
f 9/17/5 8/18/5 5/19/5 12/20/5
f 8/21/6 6/22/6 10/23/6 5/24/6
f 12/25/7 11/26/7 7/27/7 9/28/7
usemtl none
f 16/29/8 14/30/8 13/31/8 15/32/8
f 19/33/9 17/34/9 18/35/9 20/36/9
usemtl m_ec2c7198-dc86-c17f-923d-2128ca144c10
f 13/37/10 14/38/10 18/39/10 17/40/10
f 16/41/11 15/42/11 19/43/11 20/44/11
f 15/45/12 13/46/12 17/47/12 19/48/12
f 20/49/13 18/50/13 14/51/13 16/52/13
usemtl none
f 24/53/14 22/54/14 21/55/14 23/56/14
f 27/57/15 25/58/15 26/59/15 28/60/15
usemtl m_ec2c7198-dc86-c17f-923d-2128ca144c10
f 21/61/16 22/62/16 26/63/16 25/64/16
f 24/65/17 23/66/17 27/67/17 28/68/17
f 23/69/18 21/70/18 25/71/18 27/72/18
f 28/73/19 26/74/19 22/75/19 24/76/19
f 32/77/20 30/78/20 29/79/20 31/80/20
f 35/81/21 33/82/21 34/83/21 36/84/21
f 29/85/22 30/86/22 34/87/22 33/88/22
f 32/89/23 31/90/23 35/91/23 36/92/23
f 31/93/24 29/94/24 33/95/24 35/96/24
f 36/97/25 34/98/25 30/99/25 32/100/25