# Blender 5.2.0 LTS
# www.blender.org
mtllib shield.mtl
o shield.001
v -0.312500 0.385679 0.000000
v -0.312500 0.385679 0.062500
v -0.312500 -0.989321 0.000000
v -0.312500 -0.989321 0.062500
v 0.437500 0.385679 0.062500
v 0.437500 0.385679 0.000000
v 0.437500 -0.989321 0.062500
v 0.437500 -0.989321 0.000000
v 0.000000 -0.114321 -0.375000
v 0.000000 -0.114321 0.000000
v -0.000000 -0.489321 -0.375000
v -0.000000 -0.489321 0.000000
v 0.125000 -0.114321 0.000000
v 0.125000 -0.114321 -0.375000
v 0.125000 -0.489321 0.000000
v 0.125000 -0.489321 -0.375000
vn -0.0000 -0.0000 1.0000
vn -1.0000 -0.0000 -0.0000
vn -0.0000 -0.0000 -1.0000
vn 1.0000 -0.0000 -0.0000
vn -0.0000 1.0000 -0.0000
vn -0.0000 -1.0000 -0.0000
vt 0.015625 0.640625
vt 0.203125 0.640625
vt 0.203125 0.984375
vt 0.015625 0.984375
vt 0.000000 0.640625
vt 0.000000 0.984375
vt 0.218750 0.640625
vt 0.406250 0.640625
vt 0.406250 0.984375
vt 0.218750 0.984375
vt 0.203125 1.000000
vt 0.015625 1.000000
vt 0.390625 0.984375
vt 0.390625 1.000000
vt 0.500000 0.812500
vt 0.531250 0.812500
vt 0.531250 0.906250
vt 0.500000 0.906250
vt 0.406250 0.812500
vt 0.406250 0.906250
vt 0.625000 0.812500
vt 0.656250 0.812500
vt 0.656250 0.906250
vt 0.625000 0.906250
vt 0.531250 1.000000
vt 0.500000 1.000000
vt 0.562500 0.906250
vt 0.562500 1.000000
s 1
usemtl m_acce8d86-5362-6a9c-2bc8-56226d007d32
f 4/1/1 7/2/1 5/3/1 2/4/1
f 3/5/2 4/1/2 2/4/2 1/6/2
f 8/7/3 3/8/3 1/9/3 6/10/3
f 7/2/4 8/7/4 6/10/4 5/3/4
f 6/11/5 1/12/5 2/4/5 5/3/5
f 7/13/6 4/3/6 3/11/6 8/14/6
f 12/15/1 15/16/1 13/17/1 10/18/1
f 11/19/2 12/15/2 10/18/2 9/20/2
f 16/21/3 11/22/3 9/23/3 14/24/3
f 15/16/4 16/21/4 14/24/4 13/17/4
f 14/25/5 9/26/5 10/18/5 13/17/5
f 15/27/6 12/17/6 11/25/6 16/28/6
