# Blender 4.5.4 LTS
# www.blender.org
mtllib lantern-wallmounted.mtl
o Lantern
v -0.062500 0.062500 0.250000
v 0.062500 -0.437500 -0.187500
v 0.062500 -0.500000 0.312500
v 0.062500 -0.437500 0.250000
v -0.062500 -0.500000 -0.312500
v -0.062500 -0.500000 0.312500
v 0.062500 -0.500000 -0.312500
v 0.062500 -0.437500 -0.312500
v 0.062500 -0.437500 0.312500
v -0.062500 -0.437500 0.250000
v -0.062500 -0.437500 -0.312500
v -0.062500 -0.437500 0.312500
v -0.062500 -0.437500 -0.187500
v 0.062500 -0.187500 0.250000
v 0.062500 -0.250000 0.250000
v -0.062500 -0.187500 0.250000
v -0.062500 -0.250000 0.250000
v 0.062500 -0.187500 0.187500
v 0.062500 -0.250000 0.187500
v -0.062500 -0.187500 0.187500
v -0.062500 -0.250000 0.187500
v 0.062500 -0.312500 0.187500
v -0.062500 -0.312500 0.187500
v 0.062500 -0.250000 0.062500
v 0.062500 -0.312500 0.062500
v -0.062500 -0.250000 0.062500
v -0.062500 -0.312500 0.062500
v 0.062500 -0.375000 0.062500
v -0.062500 -0.375000 0.062500
v 0.062500 -0.312500 -0.062500
v 0.062500 -0.375000 -0.062500
v -0.062500 -0.312500 -0.062500
v -0.062500 -0.375000 -0.062500
v 0.062500 -0.437500 -0.062500
v -0.062500 -0.437500 -0.062500
v 0.062500 -0.375000 -0.187500
v 0.062500 -0.437500 -0.187500
v -0.062500 -0.375000 -0.187500
v -0.062500 -0.437500 -0.187500
v 0.000000 0.000000 0.250000
v 0.062500 0.062500 0.187500
v -0.062500 0.000000 0.187500
v 0.000000 0.062500 0.250000
v 0.062500 0.062500 0.187500
v -0.062500 0.062500 0.187500
v 0.000000 0.062500 0.187500
v 0.062500 0.000000 0.187500
v 0.000000 0.000000 0.187500
v -0.062500 0.000000 0.250000
v 0.000000 0.000000 0.187500
v 0.062500 0.000000 0.187500
v 0.000000 0.062500 0.187500
v 0.062500 0.062500 0.187500
v 0.000000 0.062500 0.187500
v 0.062500 0.000000 0.187500
v 0.000000 0.000000 0.187500
v 0.062500 0.062500 0.125000
v 0.000000 0.062500 0.125000
v 0.062500 0.000000 0.125000
v 0.000000 0.000000 0.125000
v -0.062500 -0.062500 0.125000
v 0.062500 -0.062500 0.187500
v -0.062500 0.000000 0.125000
v 0.000000 -0.062500 0.125000
v 0.062500 0.000000 0.250000
v 0.000000 -0.062500 0.187500
v -0.062500 -0.062500 0.187500
v 0.000000 -0.062500 0.250000
v 0.062500 -0.062500 0.250000
v -0.187500 0.187500 0.125000
v 0.187500 0.187500 0.125000
v 0.187500 -0.187500 0.125000
v -0.187500 -0.187500 0.125000
v -0.187500 0.187500 -0.375000
v 0.187500 0.187500 -0.375000
v 0.187500 -0.187500 -0.375000
v -0.187500 -0.187500 -0.375000
v 0.062500 0.125000 0.250000
v -0.062500 0.125000 0.250000
v 0.062500 0.125000 0.312500
v -0.062500 0.125000 0.312500
v 0.000000 0.125000 0.250000
vn -0.0000 -1.0000 -0.0000
vn -1.0000 -0.0000 -0.0000
vn -0.0000 -0.0000 -1.0000
vn -0.0000 1.0000 -0.0000
vn -0.0000 -0.0000 1.0000
vn 1.0000 -0.0000 -0.0000
vt 0.920000 0.960000
vt 0.880000 0.960000
vt 0.880000 0.880000
vt 0.920000 0.880000
vt 0.960000 0.920000
vt 0.920000 0.920000
vt 0.960000 0.880000
vt 0.240000 0.920000
vt 0.160000 0.920000
vt 0.160000 0.800000
vt 0.240000 0.800000
vt -0.000000 0.360000
vt 0.040000 0.360000
vt 0.240000 0.360000
vt 0.320000 0.360000
vt 0.400000 0.360000
vt 0.400000 0.400000
vt -0.000000 0.400000
vt 0.880000 0.000000
vt 0.960000 0.000000
vt 0.960000 0.400000
vt 0.880000 0.400000
vt 0.720000 0.880000
vt 0.760000 0.880000
vt 0.760000 0.960000
vt 0.720000 0.960000
vt 0.880000 0.800000
vt 0.960000 0.800000
vt 0.240000 0.480000
vt 0.240000 0.440000
vt 0.320000 0.440000
vt 0.320000 0.480000
vt 0.000000 0.440000
vt 0.000000 0.400000
vt 0.400000 0.400000
vt 0.400000 0.440000
vt 0.040000 0.440000
vt 1.000000 -0.000000
vt 1.000000 0.080000
vt 0.960000 0.080000
vt 0.960000 -0.000000
vt 0.880000 0.760000
vt 0.960000 0.760000
vt 0.080000 0.760000
vt 0.040000 0.760000
vt 0.040000 0.720000
vt 0.080000 0.720000
vt 0.080000 0.560000
vt 0.080000 0.600000
vt 0.040000 0.600000
vt 0.040000 0.560000
vt 1.000000 0.160000
vt 0.960000 0.160000
vt 0.960000 0.080000
vt 0.080000 0.960000
vt 0.120000 0.960000
vt 0.120000 1.000000
vt 0.080000 1.000000
vt 0.160000 1.000000
vt 0.200000 0.920000
vt 0.200000 1.000000
vt 1.000000 0.240000
vt 0.960000 0.240000
vt 1.000000 0.160000
vt 0.080000 0.880000
vt 0.160000 0.880000
vt 0.160000 0.960000
vt 0.080000 0.960000
vt 0.240000 1.000000
vt 0.200000 0.920000
vt 0.240000 0.920000
vt 0.040000 0.200000
vt 0.080000 0.200000
vt 0.080000 0.240000
vt 0.040000 0.240000
vt 0.960000 0.320000
vt 0.960000 0.240000
vt 1.000000 0.240000
vt 1.000000 0.320000
vt 0.800000 0.880000
vt 0.800000 0.960000
vt 0.320000 0.960000
vt 0.320000 0.880000
vt 0.400000 0.880000
vt 0.400000 0.960000
vt 0.440000 0.960000
vt 0.440000 0.880000
vt 0.080000 0.800000
vt 0.280000 0.920000
vt 0.280000 1.000000
vt 0.320000 0.800000
vt 0.400000 0.800000
vt 0.320000 1.000000
vt 0.320000 0.920000
vt 0.480000 0.960000
vt 0.480000 0.880000
vt 0.240000 0.320000
vt 0.320000 0.320000
vt 0.560000 0.960000
vt 0.560000 0.880000
vt 1.000000 0.400000
vt 0.960000 0.400000
vt 0.000000 0.800000
vt 0.000000 1.000000
vt 0.400000 0.400000
vt 0.960000 0.960000
vt 0.360000 0.960000
vt 0.400000 0.960000
vt 0.400000 1.000000
vt 0.360000 1.000000
vt -0.000000 0.800000
vt 0.040000 0.800000
vt 0.560000 0.920000
vt 0.600000 0.920000
vt 0.600000 0.960000
vt 0.560000 0.960000
vt 0.640000 0.880000
vt 0.640000 0.920000
vt 0.600000 0.880000
vt 0.680000 0.920000
vt 0.680000 0.880000
vt 0.720000 0.920000
vt 0.680000 0.960000
vt 0.640000 0.960000
vt 0.480000 1.000000
vt 0.440000 1.000000
vt 0.440000 0.960000
vt 0.480000 0.960000
vt 0.360000 0.960000
vt 0.360000 1.000000
vt 0.520000 1.000000
vt 0.520000 0.960000
vt 0.080000 0.120000
vt 0.040000 0.120000
vt 0.040000 0.080000
vt 0.080000 0.080000
vt 0.840000 0.920000
vt 0.880000 0.920000
vt 0.840000 0.880000
vt 0.240000 0.840000
vt 0.280000 0.840000
vt 0.280000 0.800000
vt 0.320000 0.800000
vt 0.000000 -0.000000
vt 0.040000 -0.000000
vt 0.400000 0.880000
vt 0.400000 0.640000
vt 0.640000 0.640000
vt 0.880000 0.640000
vt 0.640000 0.000000
vt 0.640000 0.320000
vt 0.400000 0.320000
vt 0.400000 0.000000
vt 0.400000 0.640000
vt 0.880000 0.320000
vt 1.000000 0.480000
vt 0.960000 0.480000
vt 0.960000 0.400000
vt 1.000000 0.400000
vt 1.000000 0.440000
s 0
usemtl WallMountedLantern
f 18/1/1 14/2/1 16/3/1 20/4/1
f 48/5/2 40/6/2 43/4/2 46/7/2
f 4/8/3 10/9/3 17/10/3 15/11/3
f 9/12/2 4/13/2 34/14/2 37/15/2 8/16/2 7/17/2 3/18/2
f 6/19/4 3/20/4 7/21/4 5/22/4
f 20/23/5 21/24/5 19/25/5 18/26/5
f 2/27/4 8/28/4 11/7/4 13/3/4
f 33/29/6 35/30/6 39/31/6 38/32/6
f 12/33/6 6/34/6 5/35/6 11/36/6 39/31/6 35/30/6 10/37/6
f 7/38/3 5/39/3 11/40/3 8/41/3
f 12/42/3 81/22/3 80/21/3 9/43/3 3/28/3 6/27/3
f 45/44/6 1/45/6 49/46/6 42/47/6
f 21/48/6 20/49/6 16/50/6 17/51/6
f 22/39/6 25/52/6 24/53/6 19/54/6
f 45/55/5 42/56/5 48/57/5 46/58/5
f 27/59/2 23/9/2 21/60/2 26/61/2
f 31/62/5 30/63/5 32/53/5 33/64/5
f 25/65/1 27/66/1 32/67/1 30/68/1
f 37/69/5 36/61/5 38/70/5 39/71/5
f 14/72/2 18/73/2 19/74/2 15/75/2
f 15/76/1 17/77/1 21/78/1 19/79/1
f 19/25/5 21/24/5 23/80/5 22/81/5
f 21/82/4 19/83/4 24/84/4 26/85/4
f 27/86/3 26/85/3 24/84/3 25/87/3
f 22/88/1 23/10/1 27/66/1 25/65/1
f 31/69/2 28/8/2 25/89/2 30/90/2
f 33/84/4 29/83/4 28/91/4 31/92/4
f 33/93/6 32/90/6 27/89/6 29/94/6
f 29/95/3 27/86/3 25/87/3 28/96/3
f 34/14/2 31/97/2 36/98/2 37/15/2
f 36/99/1 31/95/1 33/96/1 38/100/1
f 35/101/3 33/102/3 31/76/3 34/79/3
f 10/103/4 4/88/4 34/58/4 35/104/4
f 46/105/5 48/105/5 50/105/5 52/105/5
f 42/106/4 49/1/4 40/6/4 48/5/4
f 1/107/1 45/108/1 46/109/1 43/110/1
f 81/111/6 12/33/6 10/37/6 17/51/6 16/50/6 49/46/6 1/45/6 79/112/6
f 51/105/5 41/105/5 53/105/5 55/105/5
f 48/105/5 47/105/5 51/105/5 50/105/5
f 44/105/5 46/105/5 52/105/5 41/105/5
f 47/105/5 44/105/5 41/105/5 51/105/5
f 54/113/5 56/114/5 55/115/5 53/116/5
f 41/105/5 52/105/5 54/105/5 53/105/5
f 52/105/5 50/105/5 56/105/5 54/105/5
f 50/105/5 51/105/5 55/105/5 56/105/5
f 67/117/5 66/118/5 56/114/5 42/119/5
f 56/120/6 66/121/6 64/23/6 60/122/6
f 55/123/1 65/124/1 40/118/1 56/120/1
f 55/121/4 59/23/4 60/122/4 56/120/4
f 58/26/6 54/123/6 56/120/6 60/122/6
f 57/125/1 53/126/1 54/127/1 58/128/1
f 53/56/2 57/67/2 59/59/2 55/57/2
f 42/123/4 56/120/4 60/122/4 63/26/4
f 66/93/1 67/82/1 61/129/1 64/130/1
f 61/131/2 67/125/2 42/128/2 63/132/2
f 62/124/5 55/115/5 56/114/5 66/118/5
f 66/126/4 68/109/4 69/108/4 62/127/4
f 62/133/2 69/134/2 65/135/2 55/136/2
f 56/120/6 40/118/6 68/117/6 66/121/6
f 43/137/5 40/138/5 65/2/5 78/81/5 79/80/5 1/139/5
f 14/8/5 69/140/5 68/141/5 40/142/5 49/143/5 16/94/5
f 4/13/2 9/12/2 80/144/2 78/145/2 65/135/2 69/134/2 14/72/2 15/75/2
f 73/117/3 70/146/3 71/147/3 72/148/3
f 77/3/3 74/117/3 75/148/3 76/149/3
f 72/150/4 76/151/4 77/152/4 73/153/4
f 71/151/2 75/148/2 76/154/2 72/152/2
f 70/19/1 74/155/1 75/151/1 71/150/1
f 73/155/6 77/149/6 74/148/6 70/151/6
f 78/156/1 80/157/1 81/158/1 79/159/1 82/160/1
