# Blender 4.5.4 LTS
# www.blender.org
mtllib lantern-ceilingmounted.mtl
o Lantern
v -0.062500 -0.500000 0.062500
v 0.000000 -0.500000 0.000000
v 0.062500 -0.437500 0.062500
v -0.062500 -0.437500 0.000000
v 0.000000 -0.500000 0.062500
v 0.062500 -0.437500 0.062500
v -0.062500 -0.437500 0.062500
v 0.000000 -0.437500 0.062500
v 0.062500 -0.437500 0.000000
v 0.000000 -0.437500 0.000000
v -0.062500 -0.500000 0.000000
v 0.000000 -0.437500 0.000000
v 0.062500 -0.437500 0.000000
v 0.000000 -0.437500 0.062500
v 0.062500 -0.437500 0.062500
v 0.000000 -0.437500 0.062500
v 0.062500 -0.437500 0.000000
v 0.000000 -0.437500 0.000000
v 0.062500 -0.375000 0.062500
v 0.000000 -0.375000 0.062500
v 0.062500 -0.375000 0.000000
v 0.000000 -0.375000 0.000000
v -0.062500 -0.375000 -0.062500
v 0.062500 -0.437500 -0.062500
v -0.062500 -0.375000 0.000000
v 0.000000 -0.375000 -0.062500
v 0.062500 -0.500000 0.000000
v 0.000000 -0.437500 -0.062500
v -0.062500 -0.437500 -0.062500
v 0.000000 -0.500000 -0.062500
v 0.062500 -0.500000 -0.062500
v -0.187500 -0.375000 0.187500
v 0.187500 -0.375000 0.187500
v 0.187500 -0.375000 -0.187500
v -0.187500 -0.375000 -0.187500
v -0.187500 0.125000 0.187500
v 0.187500 0.125000 0.187500
v 0.187500 0.125000 -0.187500
v -0.187500 0.125000 -0.187500
vn -1.0000 -0.0000 -0.0000
vn -0.0000 1.0000 -0.0000
vn 1.0000 -0.0000 -0.0000
vn -0.0000 -1.0000 -0.0000
vn -0.0000 -0.0000 1.0000
vn -0.0000 -0.0000 -1.0000
vt 0.722222 0.833333
vt 0.666667 0.833333
vt 0.666667 0.777778
vt 0.722222 0.777778
vt 0.722222 0.777778
vt 0.777778 0.777778
vt 0.777778 0.833333
vt 0.722222 0.833333
vt 0.888889 0.888889
vt 0.833333 0.888889
vt 0.833333 0.833333
vt 0.888889 0.833333
vt 0.833333 0.777778
vt 0.833333 0.833333
vt 0.666667 0.444444
vt 0.722222 0.888889
vt 0.666667 0.888889
vt 0.000000 0.888889
vt 0.055556 0.888889
vt 0.055556 0.944444
vt 0.000000 0.944444
vt 0.666667 0.722222
vt 0.722222 0.722222
vt 0.666667 0.777778
vt 0.777778 0.666667
vt 0.777778 0.722222
vt 0.722222 0.666667
vt 0.833333 0.722222
vt 0.833333 0.666667
vt 0.888889 0.666667
vt 0.888889 0.722222
vt 0.833333 0.777778
vt 0.777778 0.777778
vt 0.777778 0.722222
vt 0.888889 0.777778
vt 0.222222 0.944444
vt 0.166667 0.944444
vt 0.166667 0.888889
vt 0.222222 0.888889
vt 0.888889 0.833333
vt 0.777778 0.833333
vt 0.777778 0.888889
vt 0.277778 0.944444
vt 0.222222 0.944444
vt 0.222222 0.888889
vt 0.277778 0.888889
vt 0.111111 0.944444
vt 0.111111 0.888889
vt 0.777778 0.666667
vt 0.833333 0.888889
vt 0.777778 0.888889
vt 1.000000 0.333333
vt 0.666667 0.333333
vt 0.666667 -0.000000
vt 1.000000 0.000000
vt 1.000000 0.666667
vt 0.666667 0.666667
vt 0.666667 0.333333
vt 1.000000 0.333333
vt 0.333333 0.000000
vt 0.333333 0.444444
vt 0.000000 0.444444
vt 0.000000 0.000000
vt 0.666667 0.000000
vt 0.333333 0.888889
vt 0.000000 0.888889
vt 0.666667 0.888889
s 0
usemtl WallMountedLantern
f 10/1/1 2/2/1 5/3/1 8/4/1
f 5/5/2 2/6/2 11/7/2 1/8/2
f 7/9/3 1/10/3 11/11/3 4/12/3
f 7/6/4 4/13/4 10/14/4 8/7/4
f 8/15/4 10/15/4 12/15/4 14/15/4
f 4/16/5 11/17/5 2/2/5 10/1/5
f 1/18/6 7/19/6 8/20/6 5/21/6
f 13/15/4 3/15/4 15/15/4 17/15/4
f 10/15/4 9/15/4 13/15/4 12/15/4
f 6/15/4 8/15/4 14/15/4 3/15/4
f 9/15/4 6/15/4 3/15/4 13/15/4
f 16/22/4 18/23/4 17/5/4 15/24/4
f 3/15/4 14/15/4 16/15/4 15/15/4
f 14/15/4 12/15/4 18/15/4 16/15/4
f 12/15/4 13/15/4 17/15/4 18/15/4
f 29/25/4 28/26/4 18/23/4 4/27/4
f 18/28/3 28/29/3 26/30/3 22/31/3
f 17/32/6 27/33/6 2/34/6 18/28/6
f 17/29/5 21/30/5 22/31/5 18/28/5
f 20/35/3 16/32/3 18/28/3 22/31/3
f 19/36/6 15/37/6 16/38/6 20/39/6
f 15/32/1 19/35/1 21/40/1 17/11/1
f 4/32/5 18/28/5 22/31/5 25/35/5
f 28/16/6 29/1/6 23/41/6 26/42/6
f 23/43/1 29/44/1 4/45/1 25/46/1
f 24/6/4 17/5/4 18/23/4 28/26/4
f 28/47/5 30/20/5 31/19/5 24/48/5
f 24/37/1 31/47/1 27/48/1 17/38/1
f 18/28/3 2/34/3 30/49/3 28/29/3
f 27/7/2 31/14/2 30/50/2 2/51/2
f 35/52/2 32/53/2 33/54/2 34/55/2
f 39/56/2 36/57/2 37/58/2 38/59/2
f 34/60/5 38/61/5 39/62/5 35/63/5
f 33/64/1 37/15/1 38/61/1 34/60/1
f 32/61/6 36/65/6 37/66/6 33/62/6
f 35/15/3 39/67/3 36/65/3 32/61/3
